<svg width="66" height="66" viewBox="0 0 66 66" fill="none" xmlns="http://www.w3.org/2000/svg">
<path fill-rule="evenodd" clip-rule="evenodd" d="M24.507 3.12618C24.507 1.49271 23.1828 0.168518 21.5493 0.168518C19.9158 0.168518 18.5917 1.49271 18.5917 3.12618V6.08377H15.634C7.46665 6.08377 0.845703 12.7047 0.845703 20.8721V26.7874V50.4486C0.845703 58.616 7.46665 65.2369 15.634 65.2369H51.1259C59.2932 65.2369 65.9142 58.616 65.9142 50.4486V26.7874V20.8721C65.9142 12.7047 59.2932 6.08377 51.1259 6.08377H48.1682V3.12618C48.1682 1.49271 46.844 0.168518 45.2106 0.168518C43.5771 0.168518 42.2529 1.49271 42.2529 3.12618V6.08377H24.507V3.12618ZM18.5917 11.9991V14.9568C18.5917 16.5903 19.9158 17.9145 21.5493 17.9145C23.1828 17.9145 24.507 16.5903 24.507 14.9568V11.9991H42.2529V14.9568C42.2529 16.5903 43.5771 17.9145 45.2106 17.9145C46.844 17.9145 48.1682 16.5903 48.1682 14.9568V11.9991H51.1259C56.0263 11.9991 59.9989 15.9716 59.9989 20.8721V23.8298H6.76102V20.8721C6.76102 15.9716 10.7336 11.9991 15.634 11.9991H18.5917ZM6.76102 29.7451V50.4486C6.76102 55.349 10.7336 59.3216 15.634 59.3216H51.1259C56.0263 59.3216 59.9989 55.349 59.9989 50.4486V29.7451H6.76102Z" fill="url(#paint0_linear_198_148)"/>
<defs>
<linearGradient id="paint0_linear_198_148" x1="18.9359" y1="-2.77639" x2="41.233" y2="57.5241" gradientUnits="userSpaceOnUse">
<stop stop-color="#63B4FF"/>
<stop offset="1" stop-color="#205E99"/>
</linearGradient>
</defs>
</svg>
