<svg width="66" height="66" viewBox="0 0 66 66" fill="none" xmlns="http://www.w3.org/2000/svg">
<path d="M27.8501 28.5292C27.8501 29.5876 27.6416 30.6355 27.2366 31.6133C26.8316 32.5911 26.238 33.4795 25.4897 34.2279C24.7413 34.9762 23.8529 35.5698 22.8751 35.9748C21.8973 36.3798 20.8494 36.5883 19.791 36.5883C18.7327 36.5883 17.6847 36.3798 16.707 35.9748C15.7292 35.5698 14.8408 34.9762 14.0924 34.2279C13.3441 33.4795 12.7504 32.5911 12.3454 31.6133C11.9404 30.6355 11.732 29.5876 11.732 28.5292C11.732 26.3918 12.5811 24.342 14.0924 22.8306C15.6038 21.3193 17.6536 20.4702 19.791 20.4702C21.9284 20.4702 23.9783 21.3193 25.4897 22.8306C27.001 24.342 27.8501 26.3918 27.8501 28.5292ZM23.3728 28.5292C23.3728 27.5793 22.9955 26.6682 22.3238 25.9965C21.652 25.3248 20.741 24.9474 19.791 24.9474C18.8411 24.9474 17.93 25.3248 17.2583 25.9965C16.5866 26.6682 16.2092 27.5793 16.2092 28.5292C16.2092 29.4792 16.5866 30.3902 17.2583 31.062C17.93 31.7337 18.8411 32.111 19.791 32.111C20.741 32.111 21.652 31.7337 22.3238 31.062C22.9955 30.3902 23.3728 29.4792 23.3728 28.5292ZM19.791 56.2882C21.9284 56.2882 23.9783 55.4391 25.4897 53.9278C27.001 52.4164 27.8501 50.3666 27.8501 48.2292C27.8501 46.0918 27.001 44.0419 25.4897 42.5305C23.9783 41.0192 21.9284 40.1701 19.791 40.1701C17.6536 40.1701 15.6038 41.0192 14.0924 42.5305C12.5811 44.0419 11.732 46.0918 11.732 48.2292C11.732 50.3666 12.5811 52.4164 14.0924 53.9278C15.6038 55.4391 17.6536 56.2882 19.791 56.2882ZM19.791 51.811C18.8411 51.811 17.93 51.4336 17.2583 50.7619C16.5866 50.0902 16.2092 49.1791 16.2092 48.2292C16.2092 47.2792 16.5866 46.3682 17.2583 45.6964C17.93 45.0247 18.8411 44.6474 19.791 44.6474C20.741 44.6474 21.652 45.0247 22.3238 45.6964C22.9955 46.3682 23.3728 47.2792 23.3728 48.2292C23.3728 49.1791 22.9955 50.0902 22.3238 50.7619C21.652 51.4336 20.741 51.811 19.791 51.811ZM13.9706 11.5157C13.3769 11.5157 12.8075 11.7515 12.3877 12.1714C11.9678 12.5912 11.732 13.1606 11.732 13.7543C11.732 14.348 11.9678 14.9174 12.3877 15.3372C12.8075 15.7571 13.3769 15.9929 13.9706 15.9929H52.475C53.0687 15.9929 53.6381 15.7571 54.0579 15.3372C54.4778 14.9174 54.7136 14.348 54.7136 13.7543C54.7136 13.1606 54.4778 12.5912 54.0579 12.1714C53.6381 11.7515 53.0687 11.5157 52.475 11.5157H13.9706ZM31.4319 28.977C31.4319 27.7412 32.4348 26.7383 33.6705 26.7383H52.475C53.0687 26.7383 53.6381 26.9742 54.0579 27.394C54.4778 27.8138 54.7136 28.3832 54.7136 28.977C54.7136 29.5707 54.4778 30.1401 54.0579 30.5599C53.6381 30.9797 53.0687 31.2156 52.475 31.2156H33.6705C32.4348 31.2156 31.4319 30.2127 31.4319 28.977ZM33.6705 45.5428C33.0768 45.5428 32.5074 45.7787 32.0876 46.1985C31.6678 46.6183 31.4319 47.1877 31.4319 47.7814C31.4319 48.3752 31.6678 48.9446 32.0876 49.3644C32.5074 49.7842 33.0768 50.0201 33.6705 50.0201H52.475C53.0687 50.0201 53.6381 49.7842 54.0579 49.3644C54.4778 48.9446 54.7136 48.3752 54.7136 47.7814C54.7136 47.1877 54.4778 46.6183 54.0579 46.1985C53.6381 45.7787 53.0687 45.5428 52.475 45.5428H33.6705ZM12.1797 0.770264C9.2111 0.770264 6.36409 1.94954 4.26497 4.04866C2.16585 6.14778 0.986572 8.9948 0.986572 11.9634V54.0496C0.986572 57.0182 2.16585 59.8652 4.26497 61.9643C6.36409 64.0635 9.2111 65.2427 12.1797 65.2427H54.2659C57.2345 65.2427 60.0815 64.0635 62.1806 61.9643C64.2798 59.8652 65.459 57.0182 65.459 54.0496V11.9634C65.459 8.9948 64.2798 6.14778 62.1806 4.04866C60.0815 1.94954 57.2345 0.770264 54.2659 0.770264H12.1797ZM5.46383 11.9634C5.46383 10.1822 6.17139 8.47403 7.43086 7.21455C8.69033 5.95508 10.3985 5.24752 12.1797 5.24752H54.2659C56.0471 5.24752 57.7553 5.95508 59.0147 7.21455C60.2742 8.47403 60.9818 10.1822 60.9818 11.9634V54.0496C60.9818 55.8308 60.2742 57.539 59.0147 58.7984C57.7553 60.0579 56.0471 60.7655 54.2659 60.7655H12.1797C10.3985 60.7655 8.69033 60.0579 7.43086 58.7984C6.17139 57.539 5.46383 55.8308 5.46383 54.0496V11.9634Z" fill="url(#paint0_linear_198_149)"/>
<defs>
<linearGradient id="paint0_linear_198_149" x1="18.911" y1="-2.14767" x2="41.004" y2="57.6005" gradientUnits="userSpaceOnUse">
<stop stop-color="#63B4FF"/>
<stop offset="1" stop-color="#205E99"/>
</linearGradient>
</defs>
</svg>
