<svg width="68" height="65" viewBox="0 0 68 65" fill="none" xmlns="http://www.w3.org/2000/svg">
<g clip-path="url(#clip0_198_150)">
<path d="M46.071 42.2354C46.071 39.1277 37.2569 36.6106 26.3841 36.6106M46.071 42.2354C46.071 45.3432 37.2569 47.8603 26.3841 47.8603C15.5113 47.8603 6.69718 45.3432 6.69718 42.2354M46.071 42.2354V56.1203C46.071 59.3237 37.2569 61.9224 26.3841 61.9224C15.5113 61.9224 6.69718 59.3265 6.69718 56.1203V42.2354M46.071 42.2354C56.8257 42.2354 65.7579 39.4596 65.7579 36.6106V8.48646M26.3841 36.6106C15.5113 36.6106 6.69718 39.1277 6.69718 42.2354M26.3841 36.6106C13.9588 36.6106 3.88477 33.8348 3.88477 30.9858V16.9237M26.3841 11.2989C13.9588 11.2989 3.88477 13.816 3.88477 16.9237M3.88477 16.9237C3.88477 20.0314 13.9588 22.5485 26.3841 22.5485C26.3841 25.3975 35.5329 28.1734 46.2876 28.1734C57.0422 28.1734 65.7579 25.3975 65.7579 22.5485M65.7579 8.48646C65.7579 5.37874 57.0394 2.86163 46.2876 2.86163C35.5357 2.86163 26.8172 5.37874 26.8172 8.48646M65.7579 8.48646C65.7579 11.5942 57.0394 14.1113 46.2876 14.1113C35.5357 14.1113 26.8172 11.5942 26.8172 8.48646M26.8172 8.48646V37.0775" stroke="url(#paint0_linear_198_150)" stroke-width="5.62483"/>
</g>
<defs>
<linearGradient id="paint0_linear_198_150" x1="21.0866" y1="0.188626" x2="40.6138" y2="55.5128" gradientUnits="userSpaceOnUse">
<stop stop-color="#63B4FF"/>
<stop offset="1" stop-color="#205E99"/>
</linearGradient>
<clipPath id="clip0_198_150">
<rect width="66.2264" height="65" fill="white" transform="translate(0.886841)"/>
</clipPath>
</defs>
</svg>
