<svg width="78" height="64" viewBox="0 0 78 64" fill="none" xmlns="http://www.w3.org/2000/svg">
<g clip-path="url(#clip0_198_151)">
<path d="M54.5556 59.2949H70.1111C71.1425 59.2949 72.1317 58.8851 72.861 58.1558C73.5903 57.4265 74 56.4374 74 55.406V51.5171C74 48.4229 72.7708 45.4554 70.5829 43.2675C68.395 41.0796 65.4275 39.8504 62.3333 39.8504H54.5556M45.86 24.2948C47.4352 26.056 49.508 27.2973 51.8041 27.8546C54.1003 28.4119 56.5115 28.2588 58.7187 27.4157C60.926 26.5727 62.8252 25.0792 64.1652 23.1331C65.5051 21.187 66.2225 18.8799 66.2225 16.5171C66.2225 14.1543 65.5051 11.8472 64.1652 9.90104C62.8252 7.95491 60.926 6.46149 58.7187 5.6184C56.5115 4.7753 54.1003 4.62227 51.8041 5.17955C49.508 5.73684 47.4352 6.97817 45.86 8.73929M4 55.406V51.5171C4 48.4229 5.22916 45.4554 7.41709 43.2675C9.60501 41.0796 12.5725 39.8504 15.6667 39.8504H31.2222C34.3164 39.8504 37.2839 41.0796 39.4718 43.2675C41.6597 45.4554 42.8889 48.4229 42.8889 51.5171V55.406C42.8889 56.4374 42.4792 57.4265 41.7499 58.1558C41.0206 58.8851 40.0314 59.2949 39 59.2949H7.88889C6.85749 59.2949 5.86834 58.8851 5.13903 58.1558C4.40972 57.4265 4 56.4374 4 55.406ZM35.1111 16.5171C35.1111 19.6113 33.8819 22.5787 31.694 24.7667C29.5061 26.9546 26.5386 28.1837 23.4444 28.1837C20.3503 28.1837 17.3828 26.9546 15.1949 24.7667C13.0069 22.5787 11.7778 19.6113 11.7778 16.5171C11.7778 13.4229 13.0069 10.4554 15.1949 8.26749C17.3828 6.07957 20.3503 4.85041 23.4444 4.85041C26.5386 4.85041 29.5061 6.07957 31.694 8.26749C33.8819 10.4554 35.1111 13.4229 35.1111 16.5171Z" stroke="url(#paint0_linear_198_151)" stroke-width="7.77778" stroke-linecap="round"/>
</g>
<defs>
<linearGradient id="paint0_linear_198_151" x1="23.4612" y1="2.38632" x2="38.6958" y2="55.3585" gradientUnits="userSpaceOnUse">
<stop stop-color="#63B4FF"/>
<stop offset="1" stop-color="#205E99"/>
</linearGradient>
<clipPath id="clip0_198_151">
<rect width="78" height="64" fill="white"/>
</clipPath>
</defs>
</svg>
